<?xml version="1.0" encoding="utf-8"?>
<!-- Generator: Adobe Illustrator 17.1.0, SVG Export Plug-In . SVG Version: 6.00 Build 0)  -->
<!DOCTYPE svg PUBLIC "-//W3C//DTD SVG 1.1//EN" "http://www.w3.org/Graphics/SVG/1.1/DTD/svg11.dtd">
<svg version="1.1" id="Layer_1" xmlns="http://www.w3.org/2000/svg" xmlns:xlink="http://www.w3.org/1999/xlink" x="0px" y="0px"
	 viewBox="27.5 0 245 100" enable-background="new 27.5 0 245 100" xml:space="preserve">
<g>
	<g>
		<g>
			<path fill="#FFFFFF" d="M56.9,67.3c3.6,0,6.4,2.8,6.4,6.4s-2.8,6.4-6.4,6.4c-3.6,0-6.4-2.8-6.4-6.4
				C50.5,70.2,53.4,67.3,56.9,67.3z M56.9,78.3c2.5,0,4.6-2,4.6-4.6c0-2.5-2.1-4.6-4.6-4.6s-4.6,2.1-4.6,4.6
				C52.4,76.3,54.4,78.3,56.9,78.3z"/>
			<path fill="#FFFFFF" d="M75.6,70.7c-0.3-1.1-1.4-1.6-2.5-1.6c-0.8,0-1.7,0.3-2.2,0.9c-0.3,0.3-0.3,0.7-0.3,1.2
				c0.1,1.3,1.5,1.4,2.8,1.5c1.7,0.2,3.8,0.6,4.3,2.6c0.1,0.3,0.1,0.6,0.1,0.8c0,2.4-2.4,3.7-4.6,3.7c-1.9,0-4.2-1.1-4.4-3.3v-0.3
				l1.8-0.1v0.3v-0.1c0.1,1.2,1.5,1.7,2.6,1.7c1.3,0,2.7-0.7,2.7-2c0-0.1,0-0.3-0.1-0.4c-0.2-0.9-1.5-1.1-2.7-1.2
				c-1.9-0.2-4.2-0.6-4.4-3.2l0,0c-0.1-0.8,0.2-1.6,0.7-2.3c0.8-1.1,2.3-1.6,3.7-1.6c1.9,0,3.9,1,4.2,3.3L75.6,70.7z"/>
			<path fill="#FFFFFF" d="M98.4,69.1h-2.3v9.1h2.3v1.6h-6.4v-1.6h2.3v-9.1h-2.3v-1.6h6.4V69.1z"/>
			<path fill="#FFFFFF" d="M107.6,79.9V69.2h-3.7v-1.7h9.2v1.7h-3.7v10.7H107.6z"/>
			<path fill="#FFFFFF" d="M133,70.7c-0.3-1.1-1.4-1.6-2.5-1.6c-0.8,0-1.7,0.3-2.2,0.9c-0.3,0.3-0.3,0.7-0.3,1.2
				c0.1,1.3,1.5,1.4,2.8,1.5c1.7,0.2,3.8,0.6,4.3,2.6c0.1,0.3,0.1,0.6,0.1,0.8c0,2.4-2.4,3.7-4.6,3.7c-1.9,0-4.2-1.1-4.4-3.3v-0.3
				l1.8-0.1v0.3v-0.1c0.1,1.2,1.5,1.7,2.6,1.7c1.3,0,2.7-0.7,2.7-2c0-0.1,0-0.3-0.1-0.4c-0.2-0.9-1.5-1.1-2.7-1.2
				c-1.9-0.2-4.2-0.6-4.4-3.2l0,0c-0.1-0.8,0.2-1.6,0.7-2.3c0.8-1.1,2.3-1.6,3.7-1.6c1.9,0,3.9,1,4.2,3.3L133,70.7z"/>
			<path fill="#FFFFFF" d="M146.7,67.3c3.6,0,6.4,2.8,6.4,6.4s-2.8,6.4-6.4,6.4s-6.4-2.8-6.4-6.4C140.3,70.2,143.1,67.3,146.7,67.3z
				 M146.7,78.3c2.5,0,4.6-2,4.6-4.6c0-2.5-2.1-4.6-4.6-4.6c-2.5,0-4.6,2.1-4.6,4.6C142.1,76.3,144.2,78.3,146.7,78.3z"/>
			<path fill="#FFFFFF" d="M160.9,78.1h5.8v1.8h-7.6V67.6h1.8C160.9,67.6,160.9,78.1,160.9,78.1z"/>
			<path fill="#FFFFFF" d="M172.1,76.2v-8.7h1.8v8.7c0,1.4,1.5,2,2.7,2c1.3,0,2.7-0.7,2.7-2.1v-8.7h1.8v8.7c0,2.5-2.4,3.8-4.5,3.8
				C174.5,80,172.1,78.7,172.1,76.2z"/>
			<path fill="#FFFFFF" d="M190.2,79.9V69.2h-3.7v-1.7h9.2v1.7h-3.7v10.7H190.2z"/>
			<path fill="#FFFFFF" d="M207.6,69.1h-1.3v9.1h1.3v1.6h-3.5v-1.6h1.3v-9.1h-1.3v-1.6h3.5V69.1z"/>
			<path fill="#FFFFFF" d="M219.4,67.3c3.6,0,6.4,2.8,6.4,6.4s-2.8,6.4-6.4,6.4c-3.6,0-6.4-2.8-6.4-6.4
				C213,70.2,215.8,67.3,219.4,67.3z M219.4,78.3c2.5,0,4.6-2,4.6-4.6c0-2.5-2.1-4.6-4.6-4.6s-4.6,2.1-4.6,4.6
				C214.8,76.3,216.8,78.3,219.4,78.3z"/>
			<path fill="#FFFFFF" d="M231.9,79.9V67.6h1.4l6,8.7v-8.7h1.7v12.3h-1.4l-5.9-8.6v8.6L231.9,79.9L231.9,79.9z"/>
			<path fill="#FFFFFF" d="M254.1,70.7c-0.3-1.1-1.4-1.6-2.5-1.6c-0.8,0-1.7,0.3-2.2,0.9c-0.3,0.3-0.3,0.7-0.3,1.2
				c0.1,1.3,1.5,1.4,2.8,1.5c1.7,0.2,3.8,0.6,4.3,2.6c0.1,0.3,0.1,0.6,0.1,0.8c0,2.4-2.4,3.7-4.6,3.7c-1.9,0-4.2-1.1-4.4-3.3v-0.3
				l1.8-0.1v0.3v-0.1c0.1,1.2,1.5,1.7,2.6,1.7c1.3,0,2.7-0.7,2.7-2c0-0.1,0-0.3-0.1-0.4c-0.2-0.9-1.5-1.1-2.7-1.2
				c-1.9-0.2-4.2-0.6-4.4-3.2l0,0c-0.1-0.8,0.2-1.6,0.7-2.3c0.8-1.1,2.3-1.6,3.7-1.6c1.9,0,3.9,1,4.2,3.3L254.1,70.7z"/>
		</g>
	</g>
	<g>
		<path fill="#67CBE0" d="M122.3,1.4H52.1C38.7,1.4,28.5,14.7,28.5,30c0,14.9,10.1,28.6,23.5,28.6h70.2
			c13.4-0.2,23.5-13.7,23.5-28.6C145.8,14.7,135.7,1.4,122.3,1.4z M122.3,49.2H52.1c-8.4,0-14.4-9.3-14.4-19.2
			c0-10.1,6-19.2,14.4-19.2h70.2c8.4,0,14.4,9.1,14.4,19.2C136.7,39.9,130.7,49.2,122.3,49.2z"/>
		<path fill="#67CBE0" d="M121.4,24.9H52.9c-2.8,0-5.1,2.3-5.1,5.1c0,2.8,2.3,5.1,5.1,5.1h68.5c2.8,0,5.1-2.3,5.1-5.1
			C126.5,27.2,124.2,24.9,121.4,24.9z"/>
		<path fill="#67CBE0" d="M254.7,25L254.7,25l-83.3,0.2c-4.9,0-6.7-3.8-6.7-6.9c0-1.8,0.6-3.5,1.6-4.7c1.2-1.3,2.8-2.2,5-2.2l0,0h50
			l0,0h33.1c0.5,0,1-0.4,1-1c0-0.6-0.4-1-1-1h-33.1v-2h24.5c0.5,0,1-0.4,1-1s-0.4-1-1-1h-24.4v-2h15.7c0.5,0,1-0.4,1-1s-0.4-1-1-1
			h-22.9l0,0l-42.8,0.1l0,0c-5,0-9.5,1.9-12.5,5.4c-2.7,3.1-4.2,7.1-4.2,11.4c0,8.3,5.7,16.7,16.7,16.7h83.3c4.9,0,6.7,3.7,6.7,6.8
			c0,1.8-0.6,3.5-1.6,4.7c-1.2,1.3-2.8,2.2-5,2.2H154.6v9.9l100.1-0.2l0,0c5,0,9.5-1.9,12.5-5.4c2.7-3.1,4.2-7.1,4.2-11.4
			C271.5,33.4,265.7,25,254.7,25z"/>
	</g>
	<g>
		<g>
			<path fill="#FFFFFF" d="M83.3,96.5l-2.4-9.7h1.9l1.8,7.1l1.7-7.1h1.7l1.6,7.1l1.9-7.1h1.4l-2.6,9.7h-1.9l-1.5-6.7l-1.6,6.7H83.3z
				"/>
			<path fill="#FFFFFF" d="M101.3,96.7c-0.8,0-1.5-0.2-2-0.5c-0.6-0.3-1-0.7-1.3-1.4c-0.3-0.6-0.4-1.3-0.4-2c0-0.7,0.2-1.4,0.4-1.9
				c0.3-0.6,0.7-1.1,1.3-1.4c0.6-0.3,1.2-0.5,2-0.5s1.5,0.2,2,0.5c0.6,0.3,1,0.7,1.3,1.4c0.3,0.6,0.4,1.3,0.4,1.9
				c0,0.7-0.2,1.4-0.4,2c-0.3,0.6-0.7,1.1-1.3,1.4C102.7,96.5,102.1,96.7,101.3,96.7z M101.3,95.5c0.6,0,0.9-0.3,1.3-0.7
				c0.3-0.5,0.4-1.1,0.4-1.8s-0.2-1.4-0.4-1.8c-0.3-0.5-0.7-0.7-1.3-0.7c-0.5,0-0.9,0.3-1.3,0.7c-0.3,0.5-0.4,1.1-0.4,1.8
				s0.2,1.4,0.4,1.8C100.3,95.2,100.7,95.5,101.3,95.5z"/>
			<path fill="#FFFFFF" d="M110.8,96.5v-7.2h1.9v1.4c0.2-0.5,0.5-0.8,0.9-1.1s0.8-0.4,1.4-0.4c0.1,0,0.3,0,0.4,0.1v1.7
				c-0.3-0.1-0.5-0.2-0.8-0.2c-0.4,0-0.7,0.1-1.1,0.3c-0.3,0.2-0.6,0.5-0.8,0.9v4.6L110.8,96.5L110.8,96.5z"/>
			<path fill="#FFFFFF" d="M121.1,96.5V86.2h1.9v6.5h0.1l2.6-3.4h1.6l-2.4,3.1l3.1,4.1h-2.4l-2.6-3.6H123v3.6H121.1z"/>
			<path fill="#FFFFFF" d="M141.9,96.5v-9.7h4.2c1.1,0,2,0.2,2.6,0.5c0.6,0.4,1.1,0.9,1.5,1.6c0.4,0.7,0.6,1.5,0.6,2.5
				c0,0.9-0.2,1.8-0.5,2.6s-0.8,1.4-1.5,1.8c-0.7,0.4-1.6,0.7-2.8,0.7L141.9,96.5L141.9,96.5z M144,95.2h1.5c0.8,0,1.4-0.1,1.8-0.4
				c0.4-0.3,0.7-0.7,1-1.3c0.3-0.6,0.4-1.3,0.4-1.9s-0.1-1.3-0.4-1.8c-0.2-0.5-0.6-0.9-1-1.2c-0.4-0.3-1.1-0.4-2.1-0.4H144
				C144,88.1,144,95.2,144,95.2z"/>
			<path fill="#FFFFFF" d="M156.7,88.1v-1.6h1.9v1.6H156.7z M156.7,96.5v-7.2h1.9v7.2H156.7z"/>
			<path fill="#FFFFFF" d="M165.2,98.7l0.2-1.4c0.8,0.4,1.6,0.6,2.3,0.6s1.2-0.2,1.5-0.4c0.3-0.3,0.5-0.8,0.5-1.5v-1
				c-0.2,0.5-0.5,0.8-0.9,1.1c-0.4,0.3-0.9,0.4-1.4,0.4c-0.6,0-1.1-0.2-1.5-0.4c-0.4-0.3-0.7-0.7-1-1.3c-0.2-0.6-0.3-1.2-0.3-1.9
				c0-1.1,0.3-2,0.8-2.7c0.5-0.7,1.3-1.1,2.3-1.1c0.3,0,0.5,0,0.7,0.1s0.4,0.2,0.6,0.3c0.2,0.1,0.4,0.3,0.7,0.6l0.2-0.7h1.7v5.5
				c0,1.5-0.2,2.4-0.4,2.9c-0.3,0.5-0.7,0.9-1.3,1.2c-0.6,0.3-1.3,0.4-2,0.4C167.1,99.3,166.2,99.1,165.2,98.7z M169.6,93.8v-2.7
				c-0.3-0.3-0.5-0.5-0.8-0.6s-0.5-0.2-0.7-0.2c-0.5,0-0.8,0.2-1.2,0.7c-0.3,0.4-0.4,1.1-0.4,1.8c0,0.6,0.1,1.2,0.4,1.5
				c0.2,0.4,0.6,0.6,1,0.6c0.3,0,0.6-0.1,0.9-0.3C169.1,94.5,169.4,94.2,169.6,93.8z"/>
			<path fill="#FFFFFF" d="M178.1,88.1v-1.6h1.9v1.6H178.1z M178.1,96.5v-7.2h1.9v7.2H178.1z"/>
			<path fill="#FFFFFF" d="M190.2,96.5c-0.5,0.2-0.8,0.2-1.1,0.2c-0.6,0-1.1-0.1-1.5-0.3c-0.4-0.2-0.6-0.4-0.8-0.7
				c-0.2-0.3-0.3-0.8-0.3-1.4v-3.8h-0.8v-1.2h0.8v-1.2l1.9-0.2v1.4h1.5v1.2h-1.5v3.5c0,0.5,0.1,0.9,0.3,1.1c0.2,0.2,0.5,0.3,0.8,0.3
				c0.2,0,0.4,0,0.6-0.1L190.2,96.5L190.2,96.5z"/>
			<path fill="#FFFFFF" d="M199.5,95.7c-0.3,0.3-0.5,0.5-0.7,0.6c-0.2,0.1-0.4,0.2-0.6,0.3c-0.2,0.1-0.5,0.1-0.7,0.1
				c-0.6,0-1.2-0.2-1.5-0.6c-0.4-0.4-0.6-0.9-0.6-1.5c0-0.7,0.3-1.3,0.9-1.8c0.6-0.5,1.5-0.7,2.8-0.7h0.5v-0.6
				c0-0.4-0.1-0.7-0.4-0.9c-0.3-0.2-0.6-0.2-0.9-0.2c-0.7,0-1.5,0.2-2.3,0.6v-1.4c0.9-0.3,1.7-0.5,2.6-0.5c0.5,0,1,0.1,1.4,0.2
				c0.4,0.2,0.7,0.4,1,0.7c0.3,0.3,0.4,0.7,0.4,1.4v3.2c0,0.4,0.1,0.6,0.2,0.7c0.1,0.1,0.3,0.2,0.4,0.2c0.1,0,0.2,0,0.3,0l0.1,1.1
				c-0.4,0.1-0.8,0.2-1.1,0.2c-0.4,0-0.7-0.1-0.9-0.2c-0.3-0.1-0.5-0.4-0.6-0.7h-0.1V95.7z M199.5,94.7v-1.5h-0.5
				c-0.6,0-1.1,0.1-1.4,0.3c-0.3,0.2-0.5,0.5-0.5,0.8c0,0.3,0.1,0.5,0.3,0.7c0.2,0.2,0.4,0.3,0.7,0.3c0.2,0,0.5-0.1,0.7-0.2
				C199.1,95.1,199.3,94.9,199.5,94.7z"/>
			<path fill="#FFFFFF" d="M207.9,96.5V86.2h1.9v10.4H207.9z"/>
			<path fill="#FFFFFF" d="M216.4,96.5V86.2h1.9v10.4H216.4z"/>
			<path fill="#FFFFFF" d="M224.8,99.1l1.6-2.6l-2.7-7.2h2.1l1.8,4.8l2.1-4.8h1.5l-4.5,9.8L224.8,99.1L224.8,99.1z"/>
		</g>
	</g>
</g>
</svg>
