<?xml version="1.0" encoding="utf-8"?>
<!-- Generator: Adobe Illustrator 17.1.0, SVG Export Plug-In . SVG Version: 6.00 Build 0)  -->
<!DOCTYPE svg PUBLIC "-//W3C//DTD SVG 1.1//EN" "http://www.w3.org/Graphics/SVG/1.1/DTD/svg11.dtd">
<svg version="1.1" id="Layer_1" xmlns="http://www.w3.org/2000/svg" xmlns:xlink="http://www.w3.org/1999/xlink" x="0px" y="0px"
	 viewBox="0 0 470 190" enable-background="new 0 0 470 190" xml:space="preserve">
<g>
	<g>
		<path fill="#FFFFFF" d="M58.2,127.9c6.8,0,12.2,5.4,12.2,12.2c0,6.8-5.4,12.1-12.2,12.1c-6.8,0-12.1-5.4-12.1-12.1
			C46,133.3,51.4,127.9,58.2,127.9z M58.2,148.7c4.8,0,8.7-3.8,8.7-8.7c0-4.8-3.9-8.7-8.7-8.7c-4.8,0-8.7,3.9-8.7,8.7
			C49.5,144.9,53.4,148.7,58.2,148.7z"/>
		<path fill="#FFFFFF" d="M93.7,134.4c-0.5-2.1-2.7-3-4.8-3c-1.6,0-3.3,0.6-4.2,1.8c-0.5,0.6-0.6,1.4-0.6,2.2
			c0.2,2.4,2.8,2.7,5.3,2.9c3.2,0.4,7.2,1.2,8.1,5c0.1,0.5,0.2,1.1,0.2,1.5c0,4.5-4.5,7.1-8.7,7.1c-3.6,0-8-2.1-8.4-6.3l0-0.6
			l3.4-0.1l0,0.5v-0.1c0.2,2.2,2.9,3.3,5,3.3c2.5,0,5.2-1.4,5.2-3.8c0-0.2,0-0.5-0.1-0.8c-0.4-1.8-2.8-2.1-5.1-2.3
			c-3.6-0.4-7.9-1.2-8.3-6.1v0c-0.1-1.6,0.3-3.1,1.3-4.4c1.6-2,4.4-3.1,7.1-3.1c3.6,0,7.4,1.9,8,6.2L93.7,134.4z"/>
		<path fill="#FFFFFF" d="M137,131.3h-4.3v17.3h4.3v3.1h-12.1v-3.1h4.3v-17.3h-4.3v-3.1H137V131.3z"/>
		<path fill="#FFFFFF" d="M154.4,151.8v-20.4h-7.1v-3.2h17.5v3.2h-7.1v20.4H154.4z"/>
		<path fill="#FFFFFF" d="M202.7,134.4c-0.5-2.1-2.7-3-4.8-3c-1.6,0-3.3,0.6-4.2,1.8c-0.5,0.6-0.6,1.4-0.6,2.2
			c0.2,2.4,2.8,2.7,5.3,2.9c3.2,0.4,7.2,1.2,8.1,5c0.1,0.5,0.2,1.1,0.2,1.5c0,4.5-4.5,7.1-8.7,7.1c-3.6,0-8-2.1-8.4-6.3l0-0.6
			l3.4-0.1l0,0.5v-0.1c0.2,2.2,2.9,3.3,5,3.3c2.5,0,5.2-1.4,5.2-3.8c0-0.2,0-0.5-0.1-0.8c-0.4-1.8-2.8-2.1-5.1-2.3
			c-3.6-0.4-7.9-1.2-8.3-6.1v0c-0.1-1.6,0.3-3.1,1.3-4.4c1.6-2,4.4-3.1,7.1-3.1c3.6,0,7.4,1.9,8,6.2L202.7,134.4z"/>
		<path fill="#FFFFFF" d="M228.7,127.9c6.8,0,12.2,5.4,12.2,12.2c0,6.8-5.4,12.1-12.2,12.1s-12.1-5.4-12.1-12.1
			C216.5,133.3,221.9,127.9,228.7,127.9z M228.7,148.7c4.8,0,8.7-3.8,8.7-8.7c0-4.8-3.9-8.7-8.7-8.7s-8.7,3.9-8.7,8.7
			C220,144.9,223.9,148.7,228.7,148.7z"/>
		<path fill="#FFFFFF" d="M255.8,148.4h11v3.4h-14.4v-23.4h3.4V148.4z"/>
		<path fill="#FFFFFF" d="M276.9,144.7v-16.6h3.4v16.6c0,2.6,2.8,3.8,5.2,3.8c2.4,0,5.2-1.3,5.2-3.9v-16.6h3.4v16.6
			c0,4.7-4.6,7.2-8.6,7.2C281.5,152,276.9,149.5,276.9,144.7z"/>
		<path fill="#FFFFFF" d="M311.4,151.8v-20.4h-7.1v-3.2h17.5v3.2h-7.1v20.4H311.4z"/>
		<path fill="#FFFFFF" d="M344.4,131.3H342v17.3h2.4v3.1h-6.7v-3.1h2.4v-17.3h-2.4v-3.1h6.7V131.3z"/>
		<path fill="#FFFFFF" d="M366.8,127.9c6.8,0,12.2,5.4,12.2,12.2c0,6.8-5.4,12.1-12.2,12.1s-12.1-5.4-12.1-12.1
			C354.7,133.3,360.1,127.9,366.8,127.9z M366.8,148.7c4.8,0,8.7-3.8,8.7-8.7c0-4.8-3.9-8.7-8.7-8.7s-8.7,3.9-8.7,8.7
			C358.2,144.9,362,148.7,366.8,148.7z"/>
		<path fill="#FFFFFF" d="M390.6,151.8v-23.4h2.6l11.4,16.5v-16.5h3.3v23.4h-2.7L394,135.4v16.3H390.6z"/>
		<path fill="#FFFFFF" d="M432.8,134.4c-0.5-2.1-2.7-3-4.8-3c-1.6,0-3.3,0.6-4.2,1.8c-0.5,0.6-0.6,1.4-0.6,2.2
			c0.2,2.4,2.8,2.7,5.3,2.9c3.2,0.4,7.2,1.2,8.1,5c0.1,0.5,0.2,1.1,0.2,1.5c0,4.5-4.5,7.1-8.7,7.1c-3.6,0-8-2.1-8.4-6.3l0-0.6
			l3.4-0.1l0,0.5v-0.1c0.2,2.2,2.9,3.3,5,3.3c2.5,0,5.2-1.4,5.2-3.8c0-0.2,0-0.5-0.1-0.8c-0.4-1.8-2.8-2.1-5.1-2.3
			c-3.6-0.4-7.9-1.2-8.3-6.1v0c-0.1-1.6,0.3-3.1,1.3-4.4c1.6-2,4.4-3.1,7.1-3.1c3.6,0,7.4,1.9,8,6.2L432.8,134.4z"/>
	</g>
</g>
<path fill="#67CBE0" d="M182.3,2.6H48.9C23.5,2.6,4.2,28,4.2,57c0,28.4,19.2,54.4,44.7,54.4h133.4c25.4-0.3,44.7-26,44.7-54.4
	C227,28,207.8,2.6,182.3,2.6z M182.3,93.5H48.9c-16,0-27.3-17.6-27.3-36.5c0-19.2,11.4-36.5,27.3-36.5h133.4
	c16,0,27.3,17.3,27.3,36.5C209.7,75.9,198.3,93.5,182.3,93.5z"/>
<path fill="#67CBE0" d="M180.7,47.3H50.6c-5.3,0-9.7,4.3-9.7,9.7c0,5.3,4.3,9.7,9.7,9.7h130.1c5.3,0,9.7-4.3,9.7-9.7
	C190.3,51.6,186,47.3,180.7,47.3z"/>
<path fill="#67CBE0" d="M433.9,47.5L433.9,47.5l-158.3,0.3c-9.3,0-12.7-7.3-12.7-13.1c0-3.4,1.1-6.7,3.1-8.9
	c2.2-2.5,5.4-4.2,9.5-4.2l0,0h95v0h62.8c1,0,1.9-0.8,1.9-1.9s-0.8-1.9-1.9-1.9h-62.8v-3.8H417c1,0,1.9-0.8,1.9-1.9s-0.8-1.9-1.9-1.9
	h-46.3V6.4h29.9c1,0,1.9-0.8,1.9-1.9s-0.8-1.9-1.9-1.9h-43.6v0l-81.3,0.2v0c-9.5,0-18,3.6-23.8,10.2c-5.1,5.8-8,13.5-8,21.7
	c0,15.8,10.9,31.8,31.8,31.8h158.3c9.3,0,12.7,7,12.7,12.9c0,3.4-1.1,6.7-3.1,8.9c-2.2,2.5-5.4,4.2-9.5,4.2H243.8v18.9l190.1-0.3v0
	c9.5,0,18-3.6,23.8-10.2c5.1-5.8,8-13.5,8-21.7C465.8,63.5,454.8,47.5,433.9,47.5z"/>
<g>
	<g>
		<path fill="#FFFFFF" d="M108.3,183.4l-4.6-18.5h3.6l3.4,13.5l3.2-13.5h3.2l3,13.5l3.6-13.5h2.7l-4.9,18.5h-3.7l-2.9-12.7l-3,12.7
			H108.3z"/>
		<path fill="#FFFFFF" d="M142.5,183.7c-1.5,0-2.8-0.3-3.8-0.9c-1.1-0.6-1.9-1.4-2.4-2.6c-0.6-1.1-0.8-2.4-0.8-3.8
			c0-1.4,0.3-2.6,0.8-3.7c0.6-1.1,1.4-2,2.4-2.6c1.1-0.6,2.3-0.9,3.8-0.9c1.5,0,2.8,0.3,3.8,0.9c1.1,0.6,1.9,1.4,2.4,2.6
			c0.6,1.1,0.8,2.4,0.8,3.7c0,1.4-0.3,2.6-0.8,3.8c-0.6,1.1-1.4,2-2.4,2.6C145.2,183.4,144,183.7,142.5,183.7z M142.5,181.4
			c1.1,0,1.8-0.5,2.4-1.4c0.5-0.9,0.8-2.1,0.8-3.5c0-1.4-0.3-2.6-0.8-3.5c-0.5-0.9-1.3-1.4-2.4-1.4c-1,0-1.8,0.5-2.4,1.4
			c-0.5,0.9-0.8,2.1-0.8,3.5c0,1.4,0.3,2.6,0.8,3.5C140.6,180.9,141.4,181.4,142.5,181.4z"/>
		<path fill="#FFFFFF" d="M160.6,183.4v-13.7h3.7v2.6c0.4-0.9,1-1.6,1.8-2.1c0.8-0.5,1.6-0.8,2.6-0.8c0.2,0,0.5,0,0.7,0.1v3.3
			c-0.5-0.2-1-0.3-1.5-0.3c-0.7,0-1.4,0.2-2,0.6c-0.6,0.4-1.1,0.9-1.6,1.7v8.7H160.6z"/>
		<path fill="#FFFFFF" d="M180,183.4v-19.7h3.7v12.4h0.2l4.9-6.4h3.1l-4.5,5.9l5.9,7.8h-4.5l-4.9-6.9h-0.2v6.9H180z"/>
		<path fill="#FFFFFF" d="M219.7,183.4v-18.5h8c2.1,0,3.8,0.3,5,1c1.2,0.7,2.1,1.7,2.8,3c0.7,1.3,1.1,2.9,1.1,4.8
			c0,1.8-0.3,3.5-1,4.9c-0.7,1.4-1.6,2.6-2.9,3.4c-1.3,0.8-3,1.3-5.3,1.3H219.7z M223.6,180.8h2.9c1.5,0,2.7-0.2,3.4-0.7
			c0.8-0.5,1.4-1.3,1.9-2.4c0.5-1.1,0.7-2.4,0.7-3.7c0-1.3-0.2-2.5-0.7-3.5c-0.4-1-1.1-1.8-1.9-2.3c-0.8-0.5-2.1-0.8-4-0.8h-2.3
			V180.8z"/>
		<path fill="#FFFFFF" d="M247.7,167.3v-3.1h3.7v3.1H247.7z M247.7,183.4v-13.7h3.7v13.7H247.7z"/>
		<path fill="#FFFFFF" d="M263.8,187.6l0.3-2.7c1.5,0.7,3,1.1,4.3,1.1c1.3,0,2.2-0.3,2.9-0.8c0.6-0.5,1-1.5,1-2.9v-1.9
			c-0.4,0.9-1,1.6-1.7,2.1c-0.8,0.5-1.7,0.8-2.7,0.8c-1.1,0-2-0.3-2.8-0.8c-0.8-0.5-1.4-1.3-1.9-2.4c-0.4-1.1-0.6-2.3-0.6-3.6
			c0-2.1,0.5-3.8,1.6-5.2c1-1.4,2.5-2.1,4.3-2.1c0.5,0,0.9,0,1.3,0.1c0.4,0.1,0.8,0.3,1.2,0.5c0.4,0.2,0.8,0.6,1.4,1.1l0.4-1.4h3.3
			v10.5c0,2.8-0.3,4.6-0.8,5.6c-0.5,1-1.4,1.7-2.4,2.2c-1.1,0.5-2.4,0.7-3.8,0.7C267.4,188.6,265.7,188.3,263.8,187.6z M272.3,178.3
			v-5.1c-0.5-0.6-1-1-1.5-1.2c-0.5-0.2-0.9-0.3-1.3-0.3c-0.9,0-1.6,0.4-2.2,1.3c-0.5,0.8-0.8,2-0.8,3.5c0,1.2,0.2,2.2,0.7,2.9
			c0.4,0.7,1.1,1.1,1.9,1.1c0.6,0,1.2-0.2,1.7-0.5C271.3,179.5,271.8,179,272.3,178.3z"/>
		<path fill="#FFFFFF" d="M288.3,167.3v-3.1h3.7v3.1H288.3z M288.3,183.4v-13.7h3.7v13.7H288.3z"/>
		<path fill="#FFFFFF" d="M311.4,183.3c-0.9,0.3-1.6,0.4-2.1,0.4c-1.2,0-2.1-0.2-2.8-0.5c-0.7-0.3-1.2-0.8-1.5-1.4
			c-0.3-0.6-0.5-1.5-0.5-2.6V172H303v-2.3h1.5v-2.3l3.7-0.4v2.7h2.9v2.3h-2.9v6.7c0,1,0.2,1.7,0.5,2c0.3,0.3,0.9,0.5,1.5,0.5
			c0.3,0,0.7,0,1.1-0.2V183.3z"/>
		<path fill="#FFFFFF" d="M329.1,181.9c-0.5,0.5-1,0.9-1.4,1.1c-0.4,0.2-0.8,0.4-1.2,0.5c-0.4,0.1-0.9,0.2-1.4,0.2
			c-1.2,0-2.2-0.4-2.9-1.1c-0.7-0.8-1.1-1.7-1.1-2.8c0-1.3,0.6-2.5,1.7-3.4c1.1-0.9,2.9-1.4,5.4-1.4h1v-1.2c0-0.8-0.2-1.4-0.7-1.7
			c-0.5-0.3-1.1-0.4-1.8-0.4c-1.4,0-2.9,0.4-4.3,1.2v-2.6c1.7-0.6,3.3-0.9,5-0.9c1,0,1.9,0.1,2.7,0.4c0.8,0.3,1.4,0.7,1.9,1.3
			c0.5,0.6,0.7,1.4,0.7,2.6v6.1c0,0.7,0.1,1.2,0.3,1.4c0.2,0.2,0.5,0.3,0.7,0.3c0.1,0,0.3,0,0.5,0l0.1,2.1c-0.8,0.2-1.5,0.3-2.1,0.3
			c-0.7,0-1.3-0.1-1.8-0.3c-0.5-0.2-0.9-0.7-1.1-1.4H329.1z M329.1,179.9v-2.8h-0.9c-1.2,0-2.1,0.2-2.7,0.6c-0.6,0.4-0.9,1-0.9,1.6
			c0,0.5,0.2,1,0.5,1.3c0.4,0.3,0.8,0.5,1.3,0.5c0.4,0,0.9-0.1,1.3-0.3C328.2,180.7,328.7,180.3,329.1,179.9z"/>
		<path fill="#FFFFFF" d="M345.1,183.4v-19.7h3.7v19.7H345.1z"/>
		<path fill="#FFFFFF" d="M361.1,183.4v-19.7h3.7v19.7H361.1z"/>
		<path fill="#FFFFFF" d="M377.2,188.3l3.1-4.9l-5.1-13.7h4l3.4,9.2l4-9.2h2.8l-8.5,18.7H377.2z"/>
	</g>
</g>
</svg>
